{  "asset": {    "version": "2.0",    "generator": "THREE.GLTFExporter r167"  },  "scenes": [    {      "name": "AuxScene",      "nodes": [        1      ]    }  ],  "scene": 0,  "nodes": [    {      "mesh": 0    },    {      "children": [        0      ]    }  ],  "bufferViews": [    {      "buffer": 0,      "byteOffset": 0,      "byteLength": 632880,      "target": 34962,      "byteStride": 12    },    {      "buffer": 0,      "byteOffset": 632880,      "byteLength": 632880,      "target": 34962,      "byteStride": 12    },    {      "buffer": 0,      "byteOffset": 1265760,      "byteLength": 421920,      "target": 34962,      "byteStride": 8    },    {      "buffer": 0,      "byteOffset": 1687680,      "byteLength": 99936,      "target": 34963    },    {      "buffer": 0,      "byteOffset": 1787616,      "byteLength": 5544,      "target": 34963    }  ],  "buffers": [    {      "byteLength": 1793160,      "uri": "data:application/octet-stream;base64,"    }  ],  "accessors": [    {      "bufferView": 0,      "componentType": 5126,      "count": 52740,      "max": [        45.74361038208008,        15.856134414672852,        50.69263458251953      ],      "min": [        -45.74361801147461,        -15.856133460998535,        -50.69263458251953      ],      "type": "VEC3"    },    {      "bufferView": 1,      "componentType": 5126,      "count": 52740,      "max": [        1,        1,        1      ],      "min": [        -1,        -1,        -1      ],      "type": "VEC3"    },    {      "bufferView": 2,      "componentType": 5126,      "count": 52740,      "max": [        0.5323343873023987,        0.5493026375770569      ],      "min": [        0.23358866572380066,        0.3272804915904999      ],      "type": "VEC2"    },    {      "bufferView": 3,      "componentType": 5123,      "count": 49968,      "max": [        49967      ],      "min": [        0      ],      "type": "SCALAR"    },    {      "bufferView": 4,      "componentType": 5123,      "count": 2772,      "max": [        52739      ],      "min": [        49968      ],      "type": "SCALAR"    }  ],  "materials": [    {      "pbrMetallicRoughness": {        "metallicFactor": 0.5,        "roughnessFactor": 0.5,        "baseColorTexture": {          "index": 0,          "texCoord": 0        }      },      "name": "mat0"    },    {      "pbrMetallicRoughness": {        "metallicFactor": 0.5,        "roughnessFactor": 0.5,        "baseColorTexture": {          "index": 1,          "texCoord": 0        }      },      "name": "mat1"    }  ],  "textures": [    {      "sampler": 0    },    {      "sampler": 1    }  ],  "samplers": [    {      "magFilter": 9729,      "minFilter": 9987,      "wrapS": 10497,      "wrapT": 10497    },    {      "magFilter": 9729,      "minFilter": 9987,      "wrapS": 10497,      "wrapT": 10497    }  ],  "meshes": [    {      "primitives": [        {          "mode": 4,          "attributes": {            "POSITION": 0,            "NORMAL": 1,            "TEXCOORD_0": 2          },          "indices": 3,          "material": 0        },        {          "mode": 4,          "attributes": {            "POSITION": 0,            "NORMAL": 1,            "TEXCOORD_0": 2          },          "indices": 4,          "material": 1        }      ]    }  ]}