<?xml version="1.0" standalone="no"?><!DOCTYPE svg PUBLIC "-//W3C//DTD SVG 1.1//EN" "http://www.w3.org/Graphics/SVG/1.1/DTD/svg11.dtd"><svg t="1724600956593" class="icon" viewBox="0 0 1024 1024" version="1.1" xmlns="http://www.w3.org/2000/svg" p-id="11898" xmlns:xlink="http://www.w3.org/1999/xlink" width="200" height="200"><path d="M448 64.9984V184.1152c-136.00768 26.31168-242.688 134.89152-266.16832 271.88736H64v112.00512h117.48864c22.89664 138.60864 130.88256 248.51456 268.51328 274.26816v118.7328h128v-119.5008c135.71584-27.12064 241.83808-136.23808 264.50944-273.50528H960V456.00256h-117.83168C818.688 319.0016 712.00768 210.41664 576 184.11008V64.9984z m64 177.92c149.16096 0 270.08 120.91904 270.08 270.08 0 149.16608-120.91904 270.08-270.08 270.08s-270.08-120.91392-270.08-270.08c0-149.16096 120.91904-270.08 270.08-270.08zM312.01792 434.69824c-0.06144-0.0512-0.42496 0.95232-1.23904 3.44064-0.28672 2.1248-0.19456 1.8432-0.24064 2.3808l0.16384 0.2048c0.68096-2.944 1.40288-5.95968 1.31584-6.02624z m32.48128 73.25184l-0.0512 0.07168 0.04096 0.03584 0.06144-0.05632-0.0512-0.0512z m390.11328 28.8512c-0.31232 0.60416-0.68096 1.1776-0.96256 1.79712-0.36352 0.80896 0.1024 0.32768 0.78848-0.46592 0.0512-0.44544 0.12288-0.88576 0.17408-1.3312z m-41.13408 106.3936c-0.3584 0.32256-0.70656 0.6656-1.07008 0.99328 0.06656 0.11264 0.01024 0.31744 0.01024 0.48128 0.3584-0.4864 0.70656-0.98816 1.05984-1.47968z m-3.33824 4.4032c-0.26624 0.19456-0.512 0.4096-0.77824 0.60416l-0.13312 0.19968c0.13824-0.13824 1.23904-1.03936 0.91136-0.80384z m-2.16064 2.8672c-0.15872 0.14848-0.25088 0.256-0.41984 0.40448-0.57856 0.8192-1.08544 1.46432-1.26976 1.24928-0.37888 0.50176-2.01728 2.61632-3.63008 4.70016l-0.19968 0.37888c1.87904-2.20672 3.72224-4.44928 5.51936-6.72768z m-1.65888 0.08704l-0.62976 0.47616-0.0512 0.1024c0.21504-0.18944 0.4608-0.3584 0.6656-0.55296l0.01536-0.03072z m-0.03072 0.22528c-0.0512 0.07168-0.13312 0.21504-0.1792 0.29184l0.14848-0.11776c0.00512-0.06144 0.02048-0.11264 0.03072-0.17408z m-1.19808 0.7168l-1.21344 0.93696c-0.11776 0.128-0.256 0.24576-0.36864 0.37888-0.0512 0.05632 0 0.03072-0.03072 0.07168 0.52224-0.4096 1.024-0.83456 1.53088-1.2544l0.0768-0.13824z m-18.51392 22.1696l-1.5104 1.49504-0.4864 0.67072c0.54272-0.52736 1.04448-1.09568 1.60768-1.59744 0.3072-0.2816 0.22016-0.11264-0.03072 0.22528 0.13824-0.13312 0.29184-0.256 0.43008-0.38912 0-0.13312-0.0512-0.2048-0.01024-0.4096z m-1.9968 2.16576l-0.39424 0.37888c-0.03584 0.06144-0.09216 0.11776-0.128 0.1792l0.32768-0.3072 0.19456-0.25088z" p-id="11899"></path><path d="M473.624 766.44l-37.82-37.82 292.735-292.737 37.821 37.821z" p-id="11900"></path><path d="M291.56 585.813l-38.52-38.519 298.142-298.141 38.519 38.519z" p-id="11901"></path><path d="M651.64 349.501l15.19 15.19-65.14 65.14-15.19-15.19z" p-id="11902"></path><path d="M471.386 532.821l15.19 15.19-65.139 65.14-15.19-15.19z" p-id="11903"></path><path d="M564.965 436.175l15.19 15.19-65.14 65.14-15.19-15.19z" p-id="11904"></path><path d="M388.547 612.593l15.19 15.19-65.139 65.14-15.19-15.19z" p-id="11905"></path></svg>