<?xml version="1.0" standalone="no"?><!DOCTYPE svg PUBLIC "-//W3C//DTD SVG 1.1//EN" "http://www.w3.org/Graphics/SVG/1.1/DTD/svg11.dtd"><svg t="1724601244769" class="icon" viewBox="0 0 1024 1024" version="1.1" xmlns="http://www.w3.org/2000/svg" p-id="23672" xmlns:xlink="http://www.w3.org/1999/xlink" width="200" height="200"><path d="M1023.387 465.643H879.242c-23.25-167.301-153.446-302.071-320.841-320.66V0.919h-92.998v144.064c-167.396 18.589-302.243 153.359-320.842 320.66H0.415v92.944h144.146c23.25 167.302 153.446 302.071 320.842 320.661v144.064h92.998V879.248c167.395-23.236 302.241-153.359 320.841-320.661h144.145v-92.944zM511.901 790.95c-153.446 0-278.992-125.476-278.992-278.835 0-153.358 125.546-278.834 278.992-278.834 153.446 0 278.993 125.476 278.993 278.834 0 153.359-125.547 278.835-278.993 278.835z" p-id="23673"></path><path d="M686.272 347.377c-19.582-18.477-48.953-18.477-68.534 0l-107.696 101.63-107.697-101.63c-19.579-18.477-48.953-18.477-68.532 0-19.583 18.478-19.583 46.196 0 64.674l107.695 101.63-107.695 101.628c-19.583 18.478-19.583 46.195 0 64.674 19.579 18.477 48.953 18.477 68.532 0l107.697-101.631 107.696 101.631c19.581 18.477 48.952 18.477 68.534 0 19.58-18.479 19.58-46.196 0-64.674L578.575 513.681l107.697-101.63c19.58-18.478 19.58-46.196 0-64.674z" p-id="23674"></path></svg>