<?xml version="1.0" standalone="no"?><!DOCTYPE svg PUBLIC "-//W3C//DTD SVG 1.1//EN" "http://www.w3.org/Graphics/SVG/1.1/DTD/svg11.dtd"><svg t="1724601006091" class="icon" viewBox="0 0 1024 1024" version="1.1" xmlns="http://www.w3.org/2000/svg" p-id="13917" xmlns:xlink="http://www.w3.org/1999/xlink" width="200" height="200"><path d="M384.7 704.19l-17.54-195.8s36.22-10.39 46.48-16.57a43.84 43.84 0 0 0 19.89-26.56v-79.65h16.61l6.66-6.61v-36.5l-6.66-6.67h-26.55l33.17-106.16-36.5-53.1H178l-36.5 53.1 33.21 106.16h-23.22l-10 6.67V379l10 6.66h13.24v76.29A44.4 44.4 0 0 0 188 491.82a291.9 291.9 0 0 0 43.12 16.6l-36.5 408.15h530.94V704.19z m-200-394.91l-23.22-73h76.32l16.57 73z m86.28 0l-16.61-73h92.93l-13.27 73z m89.6-73h76.32l-19.93 73h-69.71z m66.37 613.94h-26.58l-5.65-33.77-0.54-6.06h32.73z m0-69.71h-33.2L389 752l-1-11.3h39z m66.39 69.71h-36.58V810.4h36.54z m0-69.71h-36.58v-39.82h36.54z m66.33 69.71h-36.53V810.4h36.49z m0-69.71h-36.53v-39.82h36.49zM626 850.23h-36.48V810.4H626z m0-69.71h-36.48v-39.83H626z m66.39 69.71h-36.5V810.4h36.51z m0-69.71h-36.5v-39.83h36.51zM834.7 451.33l-63.1-117.77 62.16-57.02 17.3 156.1-16.36 18.69z" p-id="13918"></path><path d="M894.74 200.93c-51.4 52.34-181.33 184.61-181.33 184.61l-4.68 74.31-6.07 15-42.54-79.92L580.67 351l15-5.14 77.58-5.14 46.27-45.34-126.19-72.9 21.5-19.63 170.12 24.77s34.59-35.06 60.29-61.23c15.43-15.42 33.49-12.16 37.39-8.41s12.15 12.83 15.79 16.77 6.71 14.57-3.64 26.23z" p-id="13919"></path></svg>