<?xml version="1.0" standalone="no"?><!DOCTYPE svg PUBLIC "-//W3C//DTD SVG 1.1//EN" "http://www.w3.org/Graphics/SVG/1.1/DTD/svg11.dtd"><svg t="1724600876632" class="icon" viewBox="0 0 1024 1024" version="1.1" xmlns="http://www.w3.org/2000/svg" p-id="9686" xmlns:xlink="http://www.w3.org/1999/xlink" width="200" height="200"><path d="M1045.99665778 463.45443555H895.50734222c-24.27335111-174.76266667-160.19911111-315.54332445-334.96177777-334.96177777V-21.99665778h-97.0911289v150.48931556c-174.76266667 19.41845333-315.54332445 160.19911111-334.96177777 334.96177777H-21.99665778v97.0911289h150.48931556c24.27335111 174.76266667 160.19911111 315.54332445 334.96177777 334.96177777v150.48931556h97.0911289V895.50734222c174.76266667-24.27335111 315.54332445-160.19911111 334.96177777-334.96177777h150.48931556v-97.0911289zM512 803.27111111c-160.19911111 0-291.27111111-131.072-291.27111111-291.27111111s131.072-291.27111111 291.27111111-291.27111111 291.27111111 131.072 291.27111111 291.27111111-131.072 291.27111111-291.27111111 291.27111111z" p-id="9687"></path></svg>