<?xml version="1.0" standalone="no"?><!DOCTYPE svg PUBLIC "-//W3C//DTD SVG 1.1//EN" "http://www.w3.org/Graphics/SVG/1.1/DTD/svg11.dtd"><svg t="1724601750673" class="icon" viewBox="0 0 1024 1024" version="1.1" xmlns="http://www.w3.org/2000/svg" p-id="37648" xmlns:xlink="http://www.w3.org/1999/xlink" width="200" height="200"><path d="M67.2 803.2c41.6 0 64-19.2 86.4-38.4 19.2-16 35.2-32 64-32 28.8 0 38.4 12.8 54.4 28.8 19.2 19.2 41.6 41.6 89.6 41.6 48 0 73.6-22.4 92.8-41.6 19.2-16 32-28.8 64-28.8s44.8 12.8 60.8 28.8c19.2 19.2 41.6 41.6 92.8 41.6 48 0 73.6-22.4 96-38.4 19.2-16 35.2-28.8 67.2-28.8s44.8 12.8 60.8 32c16 16 35.2 38.4 73.6 38.4 12.8 0 22.4-9.6 22.4-22.4s-9.6-22.4-22.4-22.4c-19.2 0-28.8-9.6-41.6-25.6-16-19.2-41.6-44.8-92.8-44.8-44.8 0-70.4 22.4-92.8 38.4-22.4 16-38.4 32-70.4 32-32 0-44.8-12.8-60.8-28.8-19.2-19.2-41.6-41.6-89.6-41.6-48 0-73.6 22.4-92.8 38.4-19.2 16-32 28.8-64 28.8s-44.8-12.8-60.8-28.8c-16-19.2-38.4-41.6-86.4-41.6-48 0-73.6 22.4-92.8 41.6-19.2 16-32 28.8-57.6 28.8-12.8 0-22.4 9.6-22.4 22.4 3.2 16 12.8 22.4 22.4 22.4zM972.8 896c-19.2 0-28.8-9.6-41.6-25.6-16-19.2-41.6-44.8-92.8-44.8-44.8 0-70.4 22.4-92.8 38.4-22.4 16-38.4 32-70.4 32-32 0-44.8-12.8-60.8-28.8-19.2-19.2-41.6-41.6-89.6-41.6-48 0-73.6 22.4-92.8 38.4-19.2 16-32 28.8-64 28.8s-44.8-12.8-60.8-28.8c-16-19.2-38.4-41.6-86.4-41.6-48 0-73.6 22.4-92.8 41.6-19.2 16-32 28.8-57.6 28.8-12.8 0-22.4 9.6-22.4 22.4 0 12.8 9.6 22.4 22.4 22.4 41.6 0 64-19.2 86.4-38.4 19.2-16 35.2-32 64-32 28.8 0 38.4 12.8 54.4 28.8 19.2 19.2 41.6 41.6 89.6 41.6 48 0 73.6-22.4 92.8-41.6 19.2-16 32-28.8 64-28.8s44.8 12.8 60.8 28.8c19.2 19.2 41.6 41.6 92.8 41.6 48 0 73.6-22.4 96-38.4 19.2-16 35.2-28.8 67.2-28.8s44.8 12.8 60.8 32c16 16 35.2 38.4 73.6 38.4 12.8 0 22.4-9.6 22.4-22.4-3.2-12.8-12.8-22.4-22.4-22.4zM988.8 185.6c-9.6-12.8-22.4-25.6-44.8-35.2-16-6.4-32-9.6-41.6-12.8h-3.2c-67.2-16-144 32-224 83.2-19.2 12.8-41.6 25.6-60.8 38.4l-304 176L128 380.8c-6.4-3.2-9.6 0-16 3.2l-73.6 41.6c-6.4 3.2-9.6 9.6-9.6 16s3.2 12.8 6.4 16l169.6 128 3.2 3.2c3.2 0 22.4 6.4 54.4 6.4s73.6-6.4 134.4-22.4c6.4 3.2 12.8 3.2 19.2 3.2 16 0 38.4-3.2 64-12.8 19.2-6.4 41.6-16 64-25.6 25.6 6.4 57.6 9.6 86.4 9.6h22.4c57.6-6.4 128-54.4 131.2-54.4 0 0 3.2 0 3.2-3.2 12.8-9.6 22.4-22.4 22.4-38.4 3.2-19.2 0-35.2-9.6-54.4-3.2-6.4-6.4-9.6-9.6-12.8 54.4-32 99.2-57.6 131.2-80 51.2-38.4 64-54.4 67.2-67.2 9.6-19.2 9.6-38.4 0-51.2zM486.4 521.6c-35.2 12.8-57.6 16-67.2 16 6.4-9.6 19.2-25.6 44.8-48 32-28.8 73.6-57.6 115.2-80 48-28.8 70.4-32 83.2-32 9.6 0 12.8 3.2 16 12.8 3.2 6.4 6.4 12.8 3.2 19.2-6.4 9.6-22.4 28.8-67.2 57.6-41.6 19.2-89.6 41.6-128 54.4z m166.4-12.8c-12.8 3.2-28.8 0-44.8 0 6.4-3.2 16-9.6 22.4-12.8 25.6-16 44.8-28.8 57.6-41.6 0 3.2 3.2 6.4 3.2 6.4 6.4 9.6 16 19.2 22.4 25.6-16 9.6-38.4 19.2-60.8 22.4z m121.6-92.8c6.4 9.6 6.4 19.2 6.4 28.8 0 3.2-3.2 12.8-9.6 16-6.4 3.2-16 3.2-19.2 0-9.6-3.2-16-9.6-22.4-19.2-6.4-9.6-6.4-19.2-6.4-28.8 0-3.2 3.2-12.8 9.6-16 3.2-3.2 6.4-3.2 9.6-3.2 12.8 3.2 25.6 9.6 32 22.4z m182.4-192c0 3.2-6.4 16-51.2 48-35.2 22.4-83.2 54.4-147.2 89.6-16-3.2-32-3.2-44.8 6.4 0 0-3.2 0-3.2 3.2-6.4-9.6-16-25.6-44.8-28.8-25.6-3.2-60.8 9.6-105.6 35.2-48 28.8-96 60.8-131.2 92.8-32 28.8-51.2 51.2-51.2 70.4-83.2 22.4-134.4 19.2-153.6 16L80 448l41.6-22.4L304 480c6.4 3.2 9.6 0 16-3.2l310.4-179.2c22.4-12.8 41.6-25.6 64-38.4 73.6-44.8 140.8-89.6 195.2-76.8h3.2c16 3.2 51.2 12.8 64 28.8 3.2-3.2 3.2 3.2 0 12.8z" fill="#040000" p-id="37649"></path></svg>