<?xml version="1.0" standalone="no"?><!DOCTYPE svg PUBLIC "-//W3C//DTD SVG 1.1//EN" "http://www.w3.org/Graphics/SVG/1.1/DTD/svg11.dtd"><svg t="1724601336088" class="icon" viewBox="0 0 1024 1024" version="1.1" xmlns="http://www.w3.org/2000/svg" p-id="32710" xmlns:xlink="http://www.w3.org/1999/xlink" width="200" height="200"><path d="M619.6736 260.67968c0.09216 0.06656 0.18432 0.16896 0.29696 0.2048l0.1536 0.03584c-0.13824-0.06656-0.34816-0.19456-0.45568-0.24064z m14.31552 6.83008c0.36864 0.22016 0.80896 0.45056 1.32096 0.6912-0.12288-0.08192-0.256-0.15872-0.36864-0.24064-0.31744-0.14848-0.63488-0.3072-0.95232-0.45056zM512 288c-123.71456 0-224 100.28544-224 224s100.28544 224 224 224 224-100.28544 224-224S635.71456 288 512 288z m157.568 0.512c1.1776 1.3312 2.0992 2.31936 1.52064 1.3568-0.10752-0.18432-0.24064-0.3584-0.36864-0.52736a33.1776 33.1776 0 0 1-1.152-0.82944z m18.80064 13.23008l0.02048 0.05632 0.256 0.20992-0.03584-0.08704-0.24064-0.1792zM512 353.18784c87.7056 0 158.81216 71.10144 158.81216 158.81216 0 87.7056-71.10144 158.81216-158.81216 158.81216-87.7056 0-158.81216-71.10144-158.81216-158.81216 0-87.7056 71.10144-158.81216 158.81216-158.81216z" p-id="32711"></path></svg>