<?xml version="1.0" standalone="no"?><!DOCTYPE svg PUBLIC "-//W3C//DTD SVG 1.1//EN" "http://www.w3.org/Graphics/SVG/1.1/DTD/svg11.dtd"><svg t="1724600772410" class="icon" viewBox="0 0 1066 1024" version="1.1" xmlns="http://www.w3.org/2000/svg" p-id="9529" xmlns:xlink="http://www.w3.org/1999/xlink" width="208.203125" height="200"><path d="M521.045333 0c282.624 0 512 229.376 512 512s-229.376 512-512 512-512-229.376-512-512 229.376-512 512-512z m0 92.672c-231.424 0-419.328 187.904-419.328 419.328 0 231.424 187.904 419.328 419.328 419.328 231.424 0 419.328-187.904 419.328-419.328 0-231.424-187.904-419.328-419.328-419.328z m-75.264 153.6v187.904h150.528V246.272h146.432V778.24h-146.432v-224.256H446.293333v224.256H299.861333V246.272h145.92z" p-id="9530"></path></svg>