<?xml version="1.0" standalone="no"?><!DOCTYPE svg PUBLIC "-//W3C//DTD SVG 1.1//EN" "http://www.w3.org/Graphics/SVG/1.1/DTD/svg11.dtd"><svg t="1722220077000" class="icon" viewBox="0 0 1118 1024" version="1.1" xmlns="http://www.w3.org/2000/svg" p-id="1538" xmlns:xlink="http://www.w3.org/1999/xlink" width="218.359375" height="200"><path d="M855.483805 260.741142a448.308499 448.308499 0 1 0-630.593488 576.38427 38.968288 38.968288 0 1 0 38.881691-67.545031 370.285328 370.285328 0 1 1 534.471713-199.171248 39.028905 39.028905 0 1 0 73.606765 25.978859 448.308499 448.308499 0 0 0 14.028584-246.192981 242.988922 242.988922 0 0 1 43.90427 428.824355 39.098182 39.098182 0 1 0 43.298098 65.120338 320.40592 320.40592 0 0 0-117.597633-583.398562z" fill="#0071BC" p-id="1539"></path><path d="M649.90444 863.623848a50.702072 50.702072 0 0 1-101.404144 0c0-27.970571 50.658774-103.915433 50.658774-103.915434s50.74537 75.858266 50.74537 103.915434zM528.669767 973.25463a50.702072 50.702072 0 1 1-101.404143 0c0-27.970571 50.658774-103.915433 50.658773-103.915433s50.74537 75.511882 50.74537 103.915433zM768.281438 973.25463a50.702072 50.702072 0 1 1-101.404144 0c0-27.970571 50.658774-103.915433 50.658774-103.915433s50.74537 75.511882 50.74537 103.915433zM460.518562 786.20685a50.702072 50.702072 0 1 1-101.404143 0c0-27.970571 50.658774-103.915433 50.658773-103.915434s50.74537 75.944863 50.74537 103.915434zM835.999662 786.20685a50.702072 50.702072 0 1 1-101.404144 0c0-27.970571 50.658774-103.915433 50.658774-103.915434s50.74537 75.944863 50.74537 103.915434z" fill="#65C8D0" p-id="1540"></path></svg>